<svg xmlns="http://www.w3.org/2000/svg" viewBox="0 0 512 512">
  <defs>
    <linearGradient id="bg" x1="0%" y1="0%" x2="100%" y2="100%">
      <stop offset="0%" style="stop-color:#74B9FF"/>
      <stop offset="100%" style="stop-color:#0984E3"/>
    </linearGradient>
  </defs>
  <rect width="512" height="512" rx="80" fill="url(#bg)"/>
  <!-- Cloud body -->
  <ellipse cx="256" cy="280" rx="120" ry="80" fill="#F8F9FA"/>
  <ellipse cx="180" cy="260" rx="60" ry="50" fill="#F8F9FA"/>
  <ellipse cx="332" cy="260" rx="60" ry="50" fill="#F8F9FA"/>
  <ellipse cx="256" cy="220" rx="70" ry="50" fill="#F8F9FA"/>
  <!-- Cloud outline -->
  <ellipse cx="256" cy="280" rx="120" ry="80" fill="none" stroke="#DFE6E9" stroke-width="4"/>
  <!-- Face -->
  <circle cx="220" cy="260" r="12" fill="#2D3436"/>
  <circle cx="292" cy="260" r="12" fill="#2D3436"/>
  <circle cx="223" cy="257" r="4" fill="white"/>
  <circle cx="295" cy="257" r="4" fill="white"/>
  <path d="M240 285 Q256 300 272 285" stroke="#2D3436" stroke-width="4" fill="none" stroke-linecap="round"/>
  <!-- Blush -->
  <ellipse cx="195" cy="275" rx="12" ry="6" fill="#FFB8B8" opacity="0.6"/>
  <ellipse cx="317" cy="275" rx="12" ry="6" fill="#FFB8B8" opacity="0.6"/>
  <!-- Data lines -->
  <line x1="256" y1="380" x2="256" y2="430" stroke="#74B9FF" stroke-width="6" stroke-linecap="round"/>
  <line x1="220" y1="375" x2="200" y2="425" stroke="#74B9FF" stroke-width="6" stroke-linecap="round"/>
  <line x1="292" y1="375" x2="312" y2="425" stroke="#74B9FF" stroke-width="6" stroke-linecap="round"/>
  <!-- Server dots -->
  <circle cx="180" cy="380" r="8" fill="#55EFC4"/>
  <circle cx="256" cy="380" r="8" fill="#00CEC9"/>
  <circle cx="332" cy="380" r="8" fill="#55EFC4"/>
  <!-- Sparkles -->
  <polygon points="100,200 105,215 120,215 108,225 113,240 100,230 87,240 92,225 80,215 95,215" fill="#FFEAA7"/>
  <polygon points="420,150 423,158 432,158 425,164 428,172 420,166 412,172 415,164 408,158 417,158" fill="#FFEAA7"/>
</svg>
