<svg xmlns="http://www.w3.org/2000/svg" viewBox="0 0 512 512">
  <defs>
    <linearGradient id="bg" x1="0%" y1="0%" x2="100%" y2="100%">
      <stop offset="0%" style="stop-color:#55EFC4"/>
      <stop offset="100%" style="stop-color:#00B894"/>
    </linearGradient>
  </defs>
  <rect width="512" height="512" rx="80" fill="url(#bg)"/>
  <!-- Laptop -->
  <rect x="60" y="280" width="280" height="160" rx="15" fill="#DFE6E9"/>
  <rect x="80" y="300" width="240" height="120" rx="8" fill="#2D3436"/>
  <!-- Phone -->
  <rect x="350" y="320" width="80" height="140" rx="12" fill="#2D3436"/>
  <rect x="358" y="335" width="64" height="100" rx="6" fill="#F8F9FA"/>
  <!-- Tablet -->
  <rect x="290" y="150" width="100" height="120" rx="10" fill="#DFE6E9"/>
  <rect x="298" y="165" width="84" height="90" rx="5" fill="#2D3436"/>
  <!-- Watch -->
  <rect x="160" y="150" width="40" height="50" rx="8" fill="#E17055"/>
  <rect x="165" y="160" width="30" height="30" rx="4" fill="#2D3436"/>
  <!-- Connection lines -->
  <path d="M200 300 Q200 200 340 200" stroke="#FFEAA7" stroke-width="3" fill="none" stroke-dasharray="8,4"/>
  <path d="M200 300 Q200 250 300 250" stroke="#FFEAA7" stroke-width="3" fill="none" stroke-dasharray="8,4"/>
  <path d="M340 340 Q340 280 340 250" stroke="#FFEAA7" stroke-width="3" fill="none" stroke-dasharray="8,4"/>
  <!-- Sync icon -->
  <circle cx="200" cy="300" r="25" fill="#FFF8E7"/>
  <path d="M200 285 L200 300 L212 300" stroke="#00B894" stroke-width="4" fill="none" stroke-linecap="round" stroke-linejoin="round"/>
  <path d="M200 315 L200 300 L188 300" stroke="#E17055" stroke-width="4" fill="none" stroke-linecap="round" stroke-linejoin="round"/>
  <!-- Cute face -->
  <circle cx="200" cy="300" r="8" fill="#2D3436"/>
  <!-- Sparkles -->
  <polygon points="450,120 453,128 462,128 455,134 458,142 450,136 442,142 445,134 438,128 447,128" fill="#FFEAA7"/>
  <polygon points="80,400 83,408 92,408 85,414 88,422 80,416 72,422 75,414 68,408 77,408" fill="#FFEAA7"/>
</svg>
